<svg width="120" height="120" viewBox="0 0 120 120" fill="none" xmlns="http://www.w3.org/2000/svg">
<path d="M14 14H106V106H14V14Z" fill="#D1D2D6"/>
<path d="M38.1913 90.8822L45.2318 86.6214C46.59 89.0296 47.8256 91.0672 50.7893 91.0672C53.6302 91.0672 55.4213 89.9559 55.4213 85.6334V56.2372H64.067V85.7556C64.067 94.7103 58.818 98.7862 51.1599 98.7862C44.2437 98.7862 40.229 95.2042 38.1912 90.8815" fill="#F5F6F7"/>
<path d="M68.7603 89.9545L75.7999 85.8786C77.653 88.905 80.0615 91.128 84.3224 91.128C87.9047 91.128 90.1891 89.3369 90.1891 86.8667C90.1891 83.9024 87.8425 82.8524 83.89 81.1238L81.7292 80.1968C75.4914 77.5418 71.3536 74.207 71.3536 67.1667C71.3536 60.6823 76.294 55.7416 84.0139 55.7416C89.5102 55.7416 93.4625 57.6562 96.303 62.6585L89.5715 66.9812C88.0893 64.3259 86.4841 63.2763 84.014 63.2763C81.482 63.2763 79.8762 64.8819 79.8762 66.9812C79.8762 69.575 81.482 70.6252 85.1869 72.2309L87.3482 73.1572C94.6972 76.307 98.8351 79.5179 98.8351 86.7431C98.8351 94.5249 92.7213 98.7856 84.5079 98.7856C76.4796 98.7856 71.292 94.957 68.7604 89.9545" fill="#F5F6F7"/>
</svg>
